<svg id="Warstwa_1" data-name="Warstwa 1" xmlns="http://www.w3.org/2000/svg" width="500" height="500" viewBox="0 0 500 500">
  <defs>
    <style>
      .cls-1, .cls-2 {
        fill: none;
      }

      .cls-1, .cls-2, .cls-3, .cls-5 {
        stroke: #fff;
        stroke-linecap: round;
        stroke-linejoin: round;
      }

      .cls-1, .cls-3 {
        stroke-width: 9px;
      }

      .cls-2 {
        stroke-width: 11px;
      }

      .cls-3, .cls-4, .cls-5 {
        fill: #fff;
      }

      .cls-5 {
        stroke-width: 2px;
      }
    </style>
  </defs>
  <g>
    <line class="cls-1" x1="99.64" y1="306.79" x2="99.64" y2="338.27"/>
    <polyline class="cls-2" points="99.64 341.34 141.87 362.07 379.11 359 156.71 309.57 356.84 212.36 374.5 203.14 379.11 359 145.71 328.29 141.87 362.07 145.71 328.29 99.64 306.79 294.65 210.82 358.38 203.14"/>
    <rect class="cls-3" x="361.45" y="165.52" width="7.68" height="39.16"/>
    <path class="cls-4" d="M367.74,155.91c-.51-2.24-1.12-4.7-.42-7a4.18,4.18,0,0,1,3.24-3.16c1.73-.21,3.52.7,5.11,1.24a10,10,0,0,0,5,.63c3.74-.66,5.61-4.4,8.65-6.25A13.57,13.57,0,0,1,400,140a1.5,1.5,0,0,0,.8-2.89,16.39,16.39,0,0,0-9.68.23c-3.33,1.13-5.55,3.24-8,5.61a5.33,5.33,0,0,1-3.86,1.86,15.87,15.87,0,0,1-4.45-1.24c-2.95-1-6.17-1.18-8.45,1.31-3,3.31-2.35,7.86-1.45,11.88.43,1.88,3.32,1.09,2.9-.8Z"/>
    <rect class="cls-5" x="159.53" y="156.31" width="9.23" height="116.7"/>
  </g>
</svg>
