<svg id="Warstwa_1" data-name="Warstwa 1" xmlns="http://www.w3.org/2000/svg" width="500" height="500" viewBox="0 0 500 500">
  <defs>
    <style>
      .cls-1 {
        fill: none;
        stroke: #fff;
        stroke-miterlimit: 10;
        stroke-width: 15px;
      }
    </style>
  </defs>
  <g>
    <path class="cls-1" d="M304,189.34V323.12a33.4,33.4,0,0,1-33.3,33.29H183.11a33.4,33.4,0,0,1-33.3-33.29V189.34"/>
    <path class="cls-1" d="M198.93,170.35a26.77,26.77,0,0,1,53.53,0"/>
    <path class="cls-1" d="M257.53,170.35a26.76,26.76,0,0,1,26.76-26.76c14.78,0,21.58,11.93,21.58,26.71"/>
    <path class="cls-1" d="M226.88,195h76.68l2.31-25.88"/>
    <path class="cls-1" d="M196.76,170.35A26.76,26.76,0,0,0,170,143.59c-14.78,0-22.11,11.93-22.11,26.71L149.43,195h44.7"/>
    <path class="cls-1" d="M225.72,187.57c0,6.87,3,18.63,0,27-2.36,6.63-9.94,10.79-15.41,10.79s-13.65-4.24-16.18-10.79c-3.24-8.36,0-20.06,0-27"/>
    <line class="cls-1" x1="268.11" y1="235.54" x2="268.11" y2="323.73"/>
    <line class="cls-1" x1="228.04" y1="236.32" x2="228.04" y2="324.5"/>
    <path class="cls-1" d="M309.34,220.39a42.78,42.78,0,0,1,0,85.55"/>
    <path class="cls-1" d="M307.45,242.3a21.8,21.8,0,0,1,0,43.59"/>
    <line class="cls-1" x1="184.11" y1="236.63" x2="184.11" y2="324.82"/>
  </g>
</svg>
