<svg id="Warstwa_1" data-name="Warstwa 1" xmlns="http://www.w3.org/2000/svg" width="500" height="500" viewBox="0 0 500 500">
  <defs>
    <style>
      .cls-1, .cls-2, .cls-3 {
        fill: none;
        stroke: #fff;
        stroke-linejoin: round;
      }

      .cls-1, .cls-3 {
        stroke-width: 8px;
      }

      .cls-2 {
        stroke-width: 11px;
      }

      .cls-3 {
        stroke-linecap: round;
      }
    </style>
  </defs>
  <g>
    <polyline class="cls-1" points="163.47 183.68 163.47 161.27 174.47 161.41 174.47 184.41"/>
    <line class="cls-1" x1="151.1" y1="197.74" x2="151.1" y2="181.57"/>
    <polyline class="cls-1" points="325.38 183.07 325.38 158.15 336.47 158.27 336.47 180.68"/>
    <polyline class="cls-2" points="151.5 180 151.1 397.13 151.4 397.13 186.12 397.13"/>
    <polyline class="cls-2" points="186.06 397.13 321.08 396.32 348.47 395.92 348.5 179"/>
    <polyline class="cls-1" points="174.47 396.32 174.47 183.59 188.06 183.38 188.06 199.55 199.12 199.6 199.12 183.42 210.47 183.8 210.47 161.39 222.02 161.51 222.02 142.09 233.47 142.41 233.47 123.04 243.47 122.92 243.93 102.87 252.78 102.87 252.78 124.28 264.47 124.2 264.47 143.62 275.47 143.91 275.29 161.51 285.47 160.87 285.47 182.28 299.38 181.57 299.47 200.41 310.47 200.41 310.38 182.76 325.47 182.59 325.47 395.32"/>
    <line class="cls-3" x1="336.03" y1="181" x2="350" y2="181"/>
  </g>
  <line class="cls-3" x1="149.87" y1="182.5" x2="163.84" y2="182.5"/>
</svg>
