<svg id="Warstwa_1" data-name="Warstwa 1" xmlns="http://www.w3.org/2000/svg" width="500" height="500" viewBox="0 0 500 500">
  <defs>
    <style>
      .cls-1, .cls-2, .cls-3 {
        fill: none;
        stroke: #fff;
      }

      .cls-1, .cls-3 {
        stroke-miterlimit: 10;
      }

      .cls-1, .cls-2 {
        stroke-width: 15px;
      }

      .cls-2 {
        stroke-linejoin: round;
      }

      .cls-3 {
        stroke-width: 11px;
      }
    </style>
  </defs>
  <g>
    <line class="cls-1" x1="156.71" y1="210.96" x2="313.49" y2="210.96"/>
    <g>
      <path class="cls-1" d="M309,209.17c4.73,10.31,2.18,25.34,2.18,37.42,0,44.9-30.89,72.55-75.8,72.55S159,289.55,159,244.64c0-12.08-2.55-25.16,2.18-35.47"/>
      <path class="cls-1" d="M316.4,231.69c15.1,0,27.21,8.86,27.21,24s-21.18,24.61-36.28,24.61"/>
    </g>
    <polygon class="cls-2" points="189.75 348.94 290.81 348.94 291.14 348.94 324.18 319.14 323.85 319.14 156.71 319.14 156.39 319.14 189.43 348.94 189.75 348.94"/>
    <path class="cls-3" d="M213.4,151.06c.53.12,7.58,1.91,9.76,7.91,1.94,5.34-.82,11.7-6.93,14.94-5.16,1.78-8.75,6-9.14,10.73-.48,5.81,3.94,11.47,10.7,13.17"/>
    <path class="cls-3" d="M261.73,151.06c.52.12,7.58,1.91,9.76,7.91,1.94,5.34-.82,11.7-6.93,14.94-5.16,1.78-8.75,6-9.14,10.73-.48,5.81,3.94,11.47,10.69,13.17"/>
    <path class="cls-3" d="M238.41,151.06c.52.12,7.58,1.91,9.76,7.91,1.94,5.34-.82,11.7-6.93,14.94-5.16,1.78-8.75,6-9.14,10.73-.48,5.81,3.94,11.47,10.69,13.17"/>
  </g>
</svg>
