<svg id="Warstwa_1" data-name="Warstwa 1" xmlns="http://www.w3.org/2000/svg" width="500" height="500" viewBox="0 0 500 500">
  <defs>
    <style>
      .cls-1, .cls-3 {
        fill: #fff;
      }

      .cls-2 {
        fill: none;
      }

      .cls-2, .cls-3, .cls-4 {
        stroke: #fff;
        stroke-miterlimit: 10;
        stroke-width: 11px;
      }
    </style>
  </defs>
  <g>
    <g>
      <g>
        <path class="cls-1" d="M165.49,210c-.08-2.8,3.95-7.7,6.74-10.09,3.46-3,7.06-6.35,11.92-5.95,11.8,1,16.1,15.86,16.44,17.1.63,2.31,1.41,5.17,0,7.12-1.78,2.46-6.69,1.67-16.44,0C173.81,216.38,165.57,212.57,165.49,210Z"/>
        <path class="cls-1" d="M265.39,207.75c.08-2.8-3.95-7.71-6.73-10.1-3.47-3-7.07-6.34-11.92-6-11.81,1-16.11,15.86-16.44,17.1-.64,2.31-1.42,5.17,0,7.12,1.77,2.46,6.69,1.67,16.44,0C257.07,214.15,265.31,210.34,265.39,207.75Z"/>
        <path class="cls-1" d="M250.19,283.64C244.58,285.21,233.52,271,220,268c-15.52-3.5-29,14.09-33.6,10.29-3.2-2.66.33-14.78,8.12-21.82,8.67-7.84,18.14-10.76,24.79-10.26,7.69.56,19.21,5,24.76,12.6C251.12,268.44,255.18,282.26,250.19,283.64Z"/>
        <path class="cls-2" d="M157.08,160.33c19.2,12.59,41.76,10.94,64.8,9.26,24.92-1.82,37.87-2.77,48-12.62,2.08-2,4.38-4.78,6.73-4.21,4.75,1.15,5.46,14.87,5.05,49.65-.36,31-.55,46.48-1.68,50.49-.63,2.22-15.08,50.58-53,56.39-33.07,5.06-61.76-25.6-72.38-48.81-3-6.51-4.79-20.89-8.41-49.65-6.06-48.06-2.07-53.55.84-54.71S153.12,157.74,157.08,160.33Z"/>
      </g>
      <path class="cls-1" d="M419,210.43c-1.87-1.53-5.14-.06-7.89.87-13.38,4.51-25.46-.25-48.71-9.4-21.49-8.46-42.54-16.75-54.39-36.41-2.44-4.06-4.11-7.94-7.28-8.17s-9.1,3-24.45,48.94c-9.2,27.49-13.79,41.24-13.93,48.4-.48,25.51,12.1,65.58,44.09,75.34,36.72,11.21,70.69-26.13,72.21-27.85,2.77-3.13,9.64-17,23.39-44.78C417.51,226.19,422.82,213.52,419,210.43Zm-124.91,3.45c1.14-2.56,6.89-5.23,10.44-6.18,4.41-1.18,9.12-2.65,13.32-.2,10.22,6,7.64,21.27,7.41,22.53-.43,2.36-1,5.28-3.08,6.42-2.67,1.45-6.76-1.38-14.82-7.12C298.84,223.26,293.06,216.25,294.12,213.88Zm45,89.89c-10.28,5.56-20.17,6.16-26.52,4.11-7.33-2.37-17.47-9.44-21.08-18.1-4.6-11-5.27-25.44-.1-25.61,5.82-.19,13.22,16.2,25.67,22.37,14.25,7.07,31.54-6.83,35.08-2.06C354.67,287.82,348.37,298.77,339.14,303.77Zm46-48.63c-1.19,2.3-10.26,2.17-20.35-.71-9.51-2.72-14.28-4.14-14.82-7.12-.42-2.38,1.51-4.61,3.09-6.43.84-1,11.17-12.53,22.22-8.28,4.55,1.74,6.34,6.34,8.17,10.52C384.9,246.49,386.41,252.65,385.12,255.14Z"/>
    </g>
    <g>
      <ellipse class="cls-3" cx="364.48" cy="179.69" rx="12.74" ry="6.19"/>
      <line class="cls-2" x1="377.22" y1="178.25" x2="377.22" y2="127.91"/>
      <path class="cls-2" d="M377.22,127.91c0,11.38,10.23,20.59,22.88,20.59"/>
    </g>
    <g>
      <ellipse class="cls-4" cx="91.41" cy="366.45" rx="11.61" ry="5.64"/>
      <ellipse class="cls-4" cx="131.71" cy="355.34" rx="11.61" ry="5.64"/>
      <polyline class="cls-2" points="143.32 354.02 143.32 308.16 103.01 319.28 103.01 365.14"/>
    </g>
  </g>
</svg>
