<svg id="Warstwa_1" data-name="Warstwa 1" xmlns="http://www.w3.org/2000/svg" width="500" height="500" viewBox="0 0 500 500">
  <defs>
    <style>
      .cls-1 {
        fill: #fff;
      }
    </style>
  </defs>
  <g>
    <g>
      <path class="cls-1" d="M250.12,231.06a26.3,26.3,0,1,1-26.3,26.29,26.32,26.32,0,0,1,26.3-26.29m0-15a41.3,41.3,0,1,0,41.29,41.29,41.3,41.3,0,0,0-41.29-41.29Z"/>
      <path class="cls-1" d="M330.53,208a7.33,7.33,0,1,1-7.33,7.33,7.33,7.33,0,0,1,7.33-7.33m0-5a12.33,12.33,0,1,0,12.33,12.33A12.33,12.33,0,0,0,330.53,203Z"/>
    </g>
    <path class="cls-1" d="M325.87,198.72a28.23,28.23,0,0,1,28.2,28.2v60.8a28.23,28.23,0,0,1-28.2,28.2H174.13a28.23,28.23,0,0,1-28.2-28.2v-60.8a28.23,28.23,0,0,1,28.2-28.2H325.87m0-15H174.13a43.33,43.33,0,0,0-43.2,43.2v60.8a43.33,43.33,0,0,0,43.2,43.2H325.87a43.33,43.33,0,0,0,43.2-43.2v-60.8a43.33,43.33,0,0,0-43.2-43.2Z"/>
    <path class="cls-1" d="M193,180.08a.95.95,0,1,1,0,1.89H177.56a.95.95,0,1,1,0-1.89H193m0-11H177.56a11.95,11.95,0,1,0,0,23.89H193a11.95,11.95,0,1,0,0-23.89Z"/>
  </g>
</svg>
