<svg id="Warstwa_1" data-name="Warstwa 1" xmlns="http://www.w3.org/2000/svg" width="500" height="500" viewBox="0 0 500 500">
  <defs>
    <style>
      .cls-1, .cls-3 {
        fill: #fff;
      }

      .cls-2, .cls-4 {
        fill: none;
      }

      .cls-2, .cls-3, .cls-4 {
        stroke: #fff;
      }

      .cls-2, .cls-3 {
        stroke-miterlimit: 10;
      }

      .cls-2 {
        stroke-width: 11px;
      }

      .cls-4 {
        stroke-linecap: round;
        stroke-linejoin: bevel;
        stroke-width: 13px;
      }
    </style>
  </defs>
  <g>
    <g>
      <path class="cls-1" d="M251.13,239.55c19,0,44.81,6.31,65.74,16.06,22.45,10.47,32.51,21.67,32.51,28.13,0,5.53-8.33,15.21-31.77,24.3-20.16,7.81-46.26,12.86-66.48,12.86-19.73,0-46.16-5.69-67.33-14.51-22.92-9.54-33.17-20-33.17-26.16s10.25-16.63,33.17-26.17c21.17-8.81,47.6-14.51,67.33-14.51m0-12c-41.84,0-112.5,23.59-112.5,52.68s70.66,52.67,112.5,52.67,110.25-20.07,110.25-49.16S293,227.55,251.13,227.55Z"/>
      <path class="cls-2" d="M250,234.6a46,46,0,1,0,46,46A46,46,0,0,0,250,234.6Zm0,70.86a25.29,25.29,0,1,1,25.29-25.29A25.29,25.29,0,0,1,250,305.46Z"/>
      <circle class="cls-3" cx="241" cy="272" r="12.5"/>
    </g>
    <line class="cls-4" x1="250" y1="167.1" x2="250" y2="214.1"/>
    <line class="cls-4" x1="358.19" y1="191.01" x2="336.36" y2="232.63"/>
    <line class="cls-4" x1="152.73" y1="185.37" x2="170.27" y2="228.97"/>
  </g>
</svg>
