<svg id="Warstwa_1" data-name="Warstwa 1" xmlns="http://www.w3.org/2000/svg" width="500" height="500" viewBox="0 0 500 500">
  <defs>
    <style>
      .cls-1, .cls-2 {
        fill: none;
        stroke: #fff;
        stroke-miterlimit: 10;
      }

      .cls-1 {
        stroke-width: 15px;
      }

      .cls-2 {
        stroke-width: 11px;
      }
    </style>
  </defs>
  <g>
    <path class="cls-1" d="M270.84,291.58l17.75-1.21a40.46,40.46,0,0,0-.48-80.92,1.37,1.37,0,0,1-.26-2.72,27.94,27.94,0,0,0,22.41-27.88c-.15-15.49-12.54-27.93-27.7-27.84h-.2l-3.39.47a1.38,1.38,0,0,1-1.56-1.3,27.86,27.86,0,0,0-27.69-26.41c-15.3-.21-27.91,11.58-28.47,26.48a1.38,1.38,0,0,1-.55,1.06l-2.8,2.09a1.32,1.32,0,0,1-.81.27c-15,.1-27.21,12.47-27.35,27.84a28,28,0,0,0,22.41,27.89,1.37,1.37,0,0,1,.31,2.59,1.4,1.4,0,0,1-.57.13,40.46,40.46,0,0,0-.48,80.91l25.5.83c.74,0,34-3.11,34-2.37Z"/>
    <line class="cls-2" x1="249.9" y1="169.47" x2="249.24" y2="376.22"/>
    <line class="cls-2" x1="249.9" y1="265.07" x2="284.49" y2="230.49"/>
    <line class="cls-2" x1="249.9" y1="203.67" x2="226.59" y2="180.35"/>
    <line class="cls-2" x1="249.9" y1="279.84" x2="210.65" y2="240.59"/>
    <line class="cls-2" x1="249.9" y1="221.55" x2="277.11" y2="194.34"/>
  </g>
</svg>
