<?xml version="1.0" encoding="utf-8"?>
<!-- Generator: Adobe Illustrator 25.2.0, SVG Export Plug-In . SVG Version: 6.00 Build 0)  -->
<svg version="1.1" id="Layer_1" xmlns="http://www.w3.org/2000/svg" xmlns:xlink="http://www.w3.org/1999/xlink" x="0px" y="0px"
	 viewBox="0 0 200 200.2" style="enable-background:new 0 0 200 200.2;" xml:space="preserve">
<style type="text/css">
	.st0{fill:#FFFFFF;}
</style>
<g id="art">
	<g>
		<path class="st0" d="M200,100c0,26.8-10.6,51.2-27.8,69.1c-1.1,1.1-2.1,2.2-3.2,3.2C151,189.5,126.8,200,100,200
			c-10.3,0-20.3-1.6-29.7-4.5c4.1-6.7,10.1-17.4,12.3-26.1c1.2-4.7,6.3-23.8,6.3-23.8c3.2,6.3,12.8,11.5,22.9,11.5
			c30.1,0,51.8-27.7,51.8-62.2c0-33.1-27-57.8-61.6-57.8c-43.2,0-66.1,29-66.1,60.5c0,14.7,7.8,32.9,20.3,38.8
			c1.9,0.9,3,0.5,3.4-1.3c0.3-1.4,2.1-8.2,2.8-11.4c0.2-1,0.2-1.9-0.7-2.9c-4.1-5-7.4-14.2-7.4-22.8c0-22,16.7-43.4,45.2-43.4
			c24.6,0,41.8,16.7,41.8,40.7c0,27-13.7,45.8-31.4,45.8c-9.8,0-17.2-8.1-14.8-18.1c2.9-11.9,8.3-24.8,8.3-33.3
			c0-7.6-4.1-14.1-12.7-14.1c-10,0-18.1,10.4-18.1,24.3c0,8.8,3,14.8,3,14.8s-9.9,41.9-11.7,49.7c-2,8.6-1.2,20.8-0.3,28.7
			c-16-6.3-30-16.5-40.7-29.5c-1.5-1.8-3-3.8-4.4-5.7c-0.5-0.6-0.9-1.3-1.4-2c-0.4-0.6-0.9-1.3-1.3-2c0,0,0,0,0,0
			c-0.4-0.7-0.9-1.4-1.3-2c-0.4-0.7-0.8-1.4-1.2-2.1c-0.8-1.4-1.6-2.8-2.3-4.3c-0.4-0.7-0.7-1.4-1.1-2.2c-0.3-0.7-0.6-1.3-0.9-2
			c-0.1-0.2-0.2-0.3-0.2-0.5c-0.3-0.6-0.6-1.3-0.9-2c-0.3-0.8-0.6-1.5-0.9-2.3c-0.3-0.8-0.6-1.5-0.9-2.3c-0.3-0.7-0.5-1.5-0.8-2.2
			c0,0,0-0.1,0-0.1c-0.3-0.8-0.5-1.6-0.8-2.3c-0.2-0.7-0.4-1.3-0.6-2c-0.3-0.9-0.5-1.9-0.8-2.8c-0.2-0.8-0.4-1.6-0.6-2.3
			c-0.2-0.8-0.3-1.5-0.5-2.3c0-0.1-0.1-0.3-0.1-0.4c-0.1-0.6-0.2-1.2-0.3-1.8c0-0.2-0.1-0.4-0.1-0.7c-0.1-0.7-0.3-1.5-0.4-2.2v0
			c-0.1-0.7-0.2-1.4-0.3-2.1c0-0.2-0.1-0.5-0.1-0.7c-0.1-0.7-0.2-1.4-0.2-2.1c-0.1-0.8-0.2-1.6-0.2-2.4c0-0.1,0-0.1,0-0.2
			c-0.1-0.8-0.1-1.5-0.1-2.3c0-0.6-0.1-1.2-0.1-1.9c0-0.5,0-0.9,0-1.4c0-0.7,0-1.4,0-2.1C0,44.8,44.8,0,100,0c2.7,0,5.5,0.1,8.1,0.3
			c1.3,0.1,2.5,0.2,3.8,0.4c6.3,0.8,12.5,2.1,18.4,4c1.3,0.4,2.6,0.9,3.9,1.3c1.6,0.6,3.1,1.2,4.6,1.8c3,1.3,5.9,2.6,8.7,4.2
			c0,0,0,0,0.1,0c1.4,0.8,2.8,1.5,4.1,2.4c0,0,0.1,0,0.1,0C180.7,32,200,63.8,200,100z"/>
		<g>
			<path d="M199.8,100.2c0,26.8-10.5,51-27.6,69c-1.1,1.1-2.1,2.2-3.2,3.2c-18,17.2-42.3,27.8-69.1,27.8c-10.4,0-20.3-1.6-29.6-4.4
				c0-0.1,0.1-0.1,0.1-0.2c4.1-6.7,10.1-17.4,12.3-26.1c1.2-4.7,6.3-23.8,6.3-23.8c3.2,6.3,12.8,11.5,22.9,11.5
				c30.1,0,51.8-27.7,51.8-62.2c0-33.1-27-57.8-61.6-57.8c-43.2,0-66.1,29-66.1,60.5c0,14.7,7.8,32.9,20.3,38.8
				c1.9,0.9,3,0.5,3.4-1.3c0.3-1.4,2.1-8.2,2.8-11.4c0.2-1,0.2-1.9-0.7-2.9c-4.1-5-7.4-14.2-7.4-22.8c0-22,16.7-43.4,45.2-43.4
				c24.6,0,41.8,16.7,41.8,40.7c0,27-13.7,45.8-31.4,45.8c-9.8,0-17.2-8.1-14.8-18.1c2.9-11.9,8.3-24.8,8.3-33.3
				c0-7.6-4.1-14.1-12.7-14.1c-10,0-18.1,10.4-18.1,24.3c0,8.8,3,14.8,3,14.8s-9.9,41.9-11.7,49.7c-2,8.6-1.2,20.8-0.3,28.7v0
				c-16-6.3-30-16.5-40.7-29.6c-1.5-1.8-3-3.8-4.4-5.7c-0.5-0.6-0.9-1.3-1.4-2c-0.4-0.6-0.9-1.3-1.3-2c0,0,0,0,0,0
				c-0.4-0.7-0.9-1.4-1.3-2c-0.4-0.7-0.8-1.4-1.2-2.1c-0.8-1.4-1.6-2.8-2.3-4.3c-0.4-0.7-0.7-1.4-1.1-2.2c-0.3-0.7-0.6-1.3-0.9-2
				c-0.1-0.2-0.2-0.3-0.2-0.5c-0.3-0.6-0.6-1.3-0.9-2c-0.3-0.8-0.6-1.5-0.9-2.3c-0.3-0.8-0.6-1.5-0.9-2.3c-0.3-0.7-0.5-1.5-0.8-2.2
				c0,0,0-0.1,0-0.1c-0.3-0.8-0.5-1.6-0.8-2.3c-0.2-0.7-0.4-1.3-0.6-2c-0.3-0.9-0.5-1.9-0.8-2.8c-0.2-0.8-0.4-1.6-0.6-2.3
				c-0.2-0.8-0.3-1.5-0.5-2.3c0-0.1-0.1-0.3-0.1-0.4c-0.1-0.6-0.2-1.2-0.3-1.8c0-0.2-0.1-0.4-0.1-0.7c-0.1-0.7-0.3-1.5-0.4-2.2v0
				c-0.1-0.7-0.2-1.4-0.3-2.1c0-0.2-0.1-0.5-0.1-0.7c-0.1-0.7-0.2-1.4-0.2-2.1c-0.1-0.8-0.2-1.6-0.2-2.4c0-0.1,0-0.1,0-0.2
				c-0.1-0.8-0.1-1.5-0.1-2.3c0-0.6-0.1-1.2-0.1-1.9c0-0.5,0-0.9,0-1.4c0-0.7,0-1.4,0-2.1C0,44.8,44.8,0,100,0
				c2.7,0,5.5,0.1,8.1,0.3c1.3,0.1,2.5,0.2,3.8,0.4c6.3,0.8,12.5,2.1,18.4,4c1.3,0.4,2.6,0.9,3.9,1.3c1.6,0.6,3.1,1.2,4.6,1.8
				c3,1.3,5.9,2.7,8.7,4.2c0,0,0,0,0.1,0c1.4,0.8,2.8,1.5,4.1,2.4c0,0,0.1,0,0.1,0C180.7,32,199.9,63.8,199.8,100.2z"/>
		</g>
	</g>
</g>
</svg>
