<svg id="Warstwa_1" data-name="Warstwa 1" xmlns="http://www.w3.org/2000/svg" width="500" height="500" viewBox="0 0 500 500">
  <defs>
    <style>
      .cls-1, .cls-2, .cls-3 {
        fill: none;
        stroke: #fff;
        stroke-linecap: round;
        stroke-linejoin: round;
      }

      .cls-1 {
        stroke-width: 11px;
      }

      .cls-2 {
        stroke-width: 9px;
      }

      .cls-3 {
        stroke-width: 5px;
      }
    </style>
  </defs>
  <g>
    <polyline class="cls-1" points="432.96 286.39 432.96 337.48 62.63 337.48 62.63 286.39"/>
    <polyline class="cls-1" points="41.81 286.35 41.81 223.66 458.19 222.08 458.19 286.39"/>
    <polyline class="cls-2" points="298.5 176.29 298.5 221.81 207.38 221.81 207.38 176.29"/>
    <path class="cls-2" d="M207.38,176.29c0-7.61,20.38-13.77,45.56-13.77"/>
    <path class="cls-2" d="M298.5,176.29c0-7.61-20.38-13.77-45.56-13.77"/>
    <polyline class="cls-2" points="298.5 203.81 421.45 203.81 424.12 203.7 433.2 222.34"/>
    <polyline class="cls-2" points="207.38 203.81 74.63 203.81 73.44 204.29 61.69 222"/>
    <line class="cls-1" x1="62.88" y1="286.39" x2="433.2" y2="286.39"/>
    <line class="cls-3" x1="90.31" y1="203.81" x2="81" y2="222.34"/>
    <line class="cls-3" x1="107.91" y1="203.76" x2="98.6" y2="222.28"/>
    <line class="cls-3" x1="127.5" y1="203.76" x2="118.2" y2="222.28"/>
    <line class="cls-3" x1="145.63" y1="203.76" x2="136.32" y2="222.28"/>
    <line class="cls-3" x1="162.28" y1="203.76" x2="152.97" y2="222.28"/>
    <line class="cls-3" x1="181.39" y1="203.51" x2="172.08" y2="222.04"/>
    <line class="cls-3" x1="199.02" y1="203.51" x2="189.71" y2="222.04"/>
    <line class="cls-3" x1="406.75" y1="203.81" x2="414.59" y2="221.81"/>
    <line class="cls-3" x1="389.33" y1="204.02" x2="397.16" y2="222.02"/>
    <line class="cls-3" x1="371.69" y1="204.02" x2="379.53" y2="222.02"/>
    <line class="cls-3" x1="352.1" y1="203.78" x2="359.94" y2="221.78"/>
    <line class="cls-3" x1="333.97" y1="204.02" x2="341.81" y2="222.02"/>
    <line class="cls-3" x1="312.42" y1="204.02" x2="320.26" y2="222.02"/>
    <line class="cls-2" x1="305.35" y1="175.72" x2="305.35" y2="203.81"/>
    <path class="cls-2" d="M305.39,175.72c0-3.23-12-6.09-18.16-8.43"/>
    <line class="cls-1" x1="41.85" y1="286.39" x2="64.88" y2="286.39"/>
    <line class="cls-1" x1="458.15" y1="286.39" x2="430.71" y2="286.39"/>
  </g>
</svg>
